<?xml version="1.0" standalone="no"?>
<!DOCTYPE svg PUBLIC "-//W3C//DTD SVG 20010904//EN"
 "http://www.w3.org/TR/2001/REC-SVG-20010904/DTD/svg10.dtd">
<svg version="1.0" xmlns="http://www.w3.org/2000/svg"
 width="640.000000pt" height="1280.000000pt" viewBox="0 0 640.000000 1280.000000"
 preserveAspectRatio="xMidYMid meet">
<metadata>
Created by potrace 1.15, written by Peter Selinger 2001-2017
</metadata>
<g transform="translate(0.000000,1280.000000) scale(0.100000,-0.100000)"
fill="#000000" stroke="none">
<path d="M2695 12785 c-96 -21 -213 -70 -345 -146 -184 -105 -476 -293 -553
-357 -192 -156 -408 -444 -569 -758 l-63 -122 16 -34 c16 -32 39 -43 525 -251
280 -120 514 -217 521 -217 6 0 92 80 190 178 253 254 300 275 608 276 179 1
181 1 275 -32 127 -45 258 -121 343 -201 76 -72 121 -128 217 -270 l64 -93 51
4 c57 5 67 10 520 281 138 82 285 172 328 201 78 50 79 52 74 87 -9 72 -197
408 -297 535 -138 172 -523 488 -805 659 -331 201 -831 319 -1100 260z"/>
<path d="M3235 11052 c-59 -7 -60 -13 -57 -206 2 -129 6 -176 15 -176 7 0 54
-16 106 -36 91 -36 175 -92 410 -274 35 -28 69 -50 76 -50 7 0 20 9 30 20 18
20 18 23 -45 148 -88 174 -162 281 -267 384 -83 82 -189 171 -223 187 -8 4
-28 5 -45 3z"/>
<path d="M2704 10941 c-32 -22 -80 -59 -105 -84 -91 -87 -203 -310 -259 -516
-43 -159 -39 -191 22 -191 38 0 71 32 186 180 76 97 114 137 172 178 171 120
184 132 199 194 13 55 12 60 -21 165 l-33 108 -51 3 c-45 3 -57 -2 -110 -37z"/>
<path d="M1017 10939 c-8 -13 -20 -46 -26 -74 -7 -27 -41 -156 -76 -285 -35
-129 -67 -260 -70 -291 -10 -79 -2 -84 136 -93 96 -6 123 -12 174 -36 56 -27
156 -50 350 -80 39 -6 132 -29 207 -50 76 -22 153 -40 173 -40 58 0 95 51 95
133 0 63 55 276 90 351 37 78 33 90 -37 128 -26 14 -226 99 -443 188 -375 154
-399 163 -476 168 -78 4 -82 4 -97 -19z"/>
<path d="M5001 10871 c-305 -165 -796 -422 -844 -440 -45 -17 -35 -87 22 -159
31 -40 76 -154 136 -346 38 -120 60 -156 94 -156 21 0 79 38 134 86 24 22 47
34 66 34 16 0 118 40 227 89 110 48 258 112 329 140 72 29 136 59 143 68 17
23 15 96 -4 141 -8 20 -37 96 -64 167 -139 374 -166 416 -239 376z"/>
<path d="M3235 10170 c-3 -5 -1 -36 5 -67 5 -32 14 -155 19 -273 10 -217 14
-250 34 -250 6 0 123 -60 261 -134 332 -177 570 -296 594 -296 23 0 35 14 50
58 10 30 8 35 -19 67 -30 34 -31 38 -32 142 -2 107 -3 109 -55 230 -50 117
-118 235 -149 260 -8 6 -21 9 -29 6 -34 -13 -135 28 -355 143 -190 100 -244
124 -277 124 -22 0 -44 -4 -47 -10z"/>
<path d="M2510 9830 l-355 -320 -6 -157 c-16 -391 -15 -475 3 -486 26 -17 46
0 691 558 126 108 137 127 137 220 0 71 -41 479 -48 486 -4 4 -20 9 -37 12
-28 6 -55 -16 -385 -313z"/>
<path d="M774 9763 c-39 -42 -49 -67 -83 -207 -43 -179 -61 -295 -61 -403 l0
-93 39 -28 c36 -26 51 -30 146 -36 72 -4 153 -19 248 -44 l142 -37 250 1 c372
1 364 -5 376 256 4 95 13 215 18 266 11 106 8 120 -25 127 -13 3 -35 7 -47 10
-13 2 -71 11 -129 19 -58 9 -204 40 -324 70 -218 55 -259 67 -364 105 -30 11
-79 20 -108 21 -45 0 -57 -4 -78 -27z"/>
<path d="M5365 9710 c-88 -13 -133 -29 -140 -49 -11 -36 -34 -45 -109 -43
-120 5 -330 -58 -476 -143 -41 -23 -85 -46 -97 -49 -31 -10 -73 -63 -73 -92 0
-14 7 -39 17 -57 12 -24 18 -76 24 -202 13 -270 25 -305 106 -305 54 0 78 12
97 47 12 23 24 29 82 39 38 7 93 13 122 13 29 1 115 14 190 31 166 36 356 70
391 70 39 0 111 40 133 74 14 24 18 42 14 76 -25 205 -79 497 -101 547 -21 47
-71 59 -180 43z"/>
<path d="M3333 9130 c-36 -15 -40 -34 -26 -143 8 -56 17 -154 21 -217 6 -80
13 -123 25 -141 19 -28 809 -564 857 -581 33 -11 70 5 89 40 6 12 5 118 -5
308 -14 272 -16 290 -35 307 -12 9 -31 17 -43 17 -25 0 -750 372 -782 401 -21
20 -64 24 -101 9z"/>
<path d="M2882 8983 c-673 -583 -751 -654 -746 -681 3 -15 20 -116 38 -226 21
-123 40 -204 49 -213 10 -10 24 -13 43 -9 41 9 753 572 777 614 23 39 23 76 3
364 -8 119 -18 193 -26 203 -24 29 -58 17 -138 -52z"/>
<path d="M5520 8615 c-25 -7 -67 -23 -95 -35 -43 -20 -68 -24 -180 -25 -102
-2 -143 -6 -190 -23 -33 -11 -82 -23 -110 -27 -60 -7 -260 -59 -315 -81 -26
-11 -42 -24 -46 -39 -3 -13 -4 -127 -2 -254 2 -188 6 -233 18 -245 23 -22 111
-35 167 -23 26 5 68 8 93 7 95 -4 532 2 674 9 147 8 150 9 172 36 44 55 47 88
29 344 -9 136 -22 253 -31 276 -10 28 -27 49 -56 68 -46 30 -62 31 -128 12z"/>
<path d="M650 8573 c0 -5 9 -183 20 -398 11 -214 20 -401 20 -414 l0 -24 258
6 c274 6 373 18 725 87 178 35 205 43 213 65 4 8 -5 57 -20 108 -25 89 -38
193 -51 425 l-7 112 -27 0 c-14 0 -255 9 -536 20 -578 22 -595 23 -595 13z"/>
<path d="M3413 8060 c-22 -27 -22 -32 -18 -264 3 -230 4 -237 27 -264 27 -33
564 -382 643 -418 70 -32 184 -44 203 -21 19 23 43 222 45 372 2 157 1 159
-108 234 -64 44 -522 277 -715 363 l-55 24 -22 -26z"/>
<path d="M2699 7747 l-334 -293 -3 -47 c-3 -42 26 -170 84 -373 17 -60 44 -79
86 -60 36 15 590 508 607 540 12 21 12 63 4 239 -12 253 -23 287 -92 287 -10
0 -168 -132 -352 -293z"/>
<path d="M1353 7428 l-543 -91 0 -34 c0 -18 43 -175 95 -348 116 -386 127
-416 147 -429 12 -7 121 27 455 144 741 261 698 244 701 266 3 20 -175 496
-206 548 -16 27 -24 31 -62 33 -25 1 -289 -39 -587 -89z"/>
<path d="M4720 7511 c-74 -3 -140 -10 -147 -14 -30 -19 -38 -82 -38 -312 0
-264 -1 -262 90 -308 47 -24 61 -26 225 -31 178 -4 341 -28 535 -78 81 -20
175 -26 232 -14 29 7 31 10 26 41 -4 23 4 61 26 122 28 79 59 224 91 427 14
91 2 129 -50 156 -47 24 -117 26 -167 5 -43 -18 -95 -19 -111 -3 -14 14 -484
20 -712 9z"/>
<path d="M3454 6985 c-11 -28 -13 -74 -8 -257 4 -136 11 -229 18 -239 6 -9 58
-52 116 -96 58 -44 170 -130 250 -191 188 -146 237 -160 259 -74 22 83 61 323
61 372 0 63 -11 85 -53 106 -18 9 -108 76 -202 149 -235 182 -359 265 -396
265 -25 0 -33 -6 -45 -35z"/>
<path d="M2940 6854 c-96 -64 -202 -132 -235 -151 -33 -19 -63 -40 -67 -47
-19 -28 -1 -75 97 -267 58 -112 105 -208 105 -212 0 -16 20 -1 197 155 l179
157 -19 228 c-11 125 -22 231 -26 234 -3 4 -17 9 -31 12 -20 5 -59 -16 -200
-109z"/>
<path d="M1865 6377 c-254 -117 -502 -231 -552 -254 l-91 -42 164 -363 c91
-199 167 -364 168 -365 2 -2 169 95 372 215 203 120 442 260 532 312 138 79
162 96 162 117 0 30 -270 593 -284 592 -6 0 -218 -96 -471 -212z"/>
<path d="M4408 6479 c-15 -8 -18 -24 -18 -81 0 -54 -8 -97 -34 -177 -52 -161
-89 -337 -76 -361 12 -22 41 -40 65 -40 9 0 179 -89 378 -199 556 -305 549
-301 594 -301 47 0 84 25 106 72 32 68 128 598 131 716 1 89 -1 92 -123 120
-48 11 -130 39 -182 61 -103 43 -284 90 -587 151 -108 22 -206 42 -217 45 -11
2 -28 -1 -37 -6z"/>
<path d="M1520 3952 c0 -53 -31 -147 -70 -212 -29 -49 -44 -90 -60 -170 -12
-58 -37 -141 -56 -184 -35 -83 -46 -168 -22 -182 7 -4 215 -18 462 -30 248
-12 492 -25 542 -28 l91 -5 12 67 c7 37 19 130 26 207 8 77 20 182 27 233 15
112 1 172 -42 183 -14 4 -70 21 -125 37 -175 52 -235 63 -278 52 -43 -13 -134
-2 -321 36 -65 13 -134 24 -152 24 -31 0 -34 -3 -34 -28z"/>
<path d="M3995 3589 c-5 -7 -19 -125 -31 -263 -41 -445 -40 -392 -7 -424 26
-26 45 -31 283 -71 140 -24 365 -63 500 -87 135 -24 253 -44 263 -44 30 0 64
43 71 91 13 91 56 516 58 580 3 75 -8 96 -56 104 -17 3 -249 31 -516 61 -267
31 -501 58 -521 61 -24 3 -39 0 -44 -8z"/>
<path d="M2701 3425 c-44 -40 -57 -80 -67 -198 -12 -141 22 -227 123 -306 73
-59 143 -91 197 -91 34 0 53 20 40 41 -3 6 4 72 17 148 13 82 19 151 15 172
-5 25 -35 64 -121 152 -130 134 -141 138 -204 82z"/>
<path d="M3615 3313 c-16 -8 -41 -26 -55 -38 -37 -33 -64 -45 -105 -45 -37 0
-103 -28 -123 -52 -6 -8 -14 -82 -18 -180 l-7 -166 28 -26 c44 -40 87 -35 208
25 56 28 115 60 130 71 27 19 27 21 11 39 -15 17 -16 29 -5 119 15 132 14 243
-1 258 -15 15 -26 15 -63 -5z"/>
<path d="M1292 2877 c-61 -19 -76 -43 -94 -152 -54 -322 -53 -311 -36 -337
l16 -25 339 -7 c186 -3 413 -9 504 -12 144 -6 174 -4 224 11 56 18 59 21 87
80 28 60 29 67 26 190 -4 166 -1 163 -195 181 -76 7 -187 24 -248 38 -179 40
-541 60 -623 33z"/>
<path d="M2617 2600 c-14 -11 -35 -45 -46 -76 -28 -72 -27 -138 2 -189 36 -64
168 -154 256 -174 37 -8 45 -7 62 10 16 16 19 33 18 117 0 53 -3 105 -7 114
-4 10 -47 63 -96 118 -82 93 -91 100 -126 100 -22 0 -48 -8 -63 -20z"/>
<path d="M3902 2614 c-42 -19 -82 -251 -67 -387 10 -81 30 -100 131 -122 107
-24 255 -62 529 -135 258 -70 332 -83 388 -70 79 17 108 66 142 243 25 124 31
202 17 224 -10 15 -114 43 -162 43 -39 0 -101 11 -375 69 -330 69 -466 101
-494 115 -32 17 -91 27 -109 20z"/>
<path d="M3395 2427 c-141 -57 -146 -62 -168 -150 -17 -67 -18 -81 -6 -119 13
-40 17 -43 53 -46 68 -6 214 48 274 101 20 19 22 29 22 122 0 65 -4 105 -12
113 -21 21 -80 13 -163 -21z"/>
<path d="M2186 2053 c-4 -5 -233 -10 -508 -13 l-501 -5 -15 -40 c-8 -23 -16
-90 -19 -155 -5 -123 9 -405 20 -416 3 -4 80 12 169 35 90 22 340 86 557 141
217 54 398 105 403 112 11 16 0 241 -13 285 -14 44 -70 78 -93 56z"/>
<path d="M2555 1876 c-31 -30 -35 -39 -35 -84 0 -71 30 -160 83 -244 66 -106
108 -148 146 -148 51 0 64 45 59 200 -3 74 -10 136 -18 152 -13 27 -147 138
-182 151 -12 4 -29 -5 -53 -27z"/>
<path d="M3405 1833 c-31 -8 -192 -140 -214 -176 -13 -22 -23 -66 -31 -140
-13 -115 -8 -168 15 -187 23 -19 88 6 144 56 53 48 71 89 102 233 6 30 20 72
30 95 25 55 25 102 0 116 -11 5 -21 9 -23 9 -2 -1 -12 -4 -23 -6z"/>
<path d="M3831 1829 c-66 -13 -76 -27 -91 -132 -16 -115 -14 -155 9 -187 20
-28 91 -66 140 -75 60 -11 120 -45 326 -184 238 -160 432 -281 449 -281 21 0
97 101 132 175 43 93 104 281 104 322 0 60 -38 87 -185 128 -71 20 -285 81
-475 136 -190 55 -349 101 -355 103 -5 1 -30 -1 -54 -5z"/>
<path d="M1940 1309 c-179 -60 -386 -128 -460 -150 -74 -21 -150 -47 -170 -57
-51 -25 -50 -56 5 -195 43 -108 52 -121 112 -177 60 -56 428 -368 512 -433
113 -89 463 -217 746 -272 190 -38 881 -26 1009 16 82 27 248 120 414 230 195
130 243 170 313 257 35 42 78 94 96 115 40 45 41 65 6 99 -16 14 -190 119
-388 234 -198 115 -380 227 -405 250 -60 55 -80 64 -139 64 -48 0 -54 -3 -118
-61 -120 -109 -213 -139 -429 -139 -159 0 -202 6 -345 51 -118 36 -143 56
-203 154 -50 82 -97 114 -178 121 -47 3 -91 -9 -378 -107z"/>
</g>
</svg>
